{"asset":{"version":"2.0","generator":"Unity 6000.2.8f1 glTFast 6.15.1"},"nodes":[{"name":"LightBulb","mesh":0,"translation":[-86.78,36.71,-11.07]}],"buffers":[{"uri":"LightBulb.bin","byteLength":151512}],"bufferViews":[{"buffer":0,"byteLength":11592,"target":34963},{"buffer":0,"byteLength":139920,"byteOffset":11592,"byteStride":48,"target":34962}],"accessors":[{"bufferView":1,"componentType":5126,"count":2915,"type":"VEC3","max":[6.199997,0.96468544,6.8],"min":[-6.199997,-0.964687347,-6.8]},{"bufferView":1,"componentType":5126,"count":2915,"type":"VEC3","byteOffset":12},{"bufferView":1,"componentType":5126,"count":2915,"type":"VEC4","byteOffset":24},{"bufferView":1,"componentType":5126,"count":2915,"type":"VEC2","byteOffset":40},{"bufferView":0,"componentType":5123,"count":5796,"type":"SCALAR"}],"materials":[{"name":"01 - Default.001","pbrMetallicRoughness":{"baseColorFactor":[0.8901961,0.8901961,0.8901961,1],"metallicFactor":0,"roughnessFactor":0.5527864},"doubleSided":true}],"meshes":[{"name":"pb_Mesh-118144","primitives":[{"attributes":{"POSITION":0,"NORMAL":1,"TANGENT":2,"TEXCOORD_0":3},"indices":4,"material":0}]}],"scene":0,"scenes":[{"name":"LightBulb","nodes":[0]}]}